<?xml version="1.0" encoding="utf-8"?>
<!-- Generator: Adobe Illustrator 23.0.3, SVG Export Plug-In . SVG Version: 6.00 Build 0)  -->
<svg version="1.1" id="Icons" xmlns="http://www.w3.org/2000/svg" xmlns:xlink="http://www.w3.org/1999/xlink" x="0px" y="0px"
	 viewBox="0 0 32 32" style="enable-background:new 0 0 32 32;" xml:space="preserve">
<style type="text/css">
	.st0{fill:none;stroke:#FFFFFF;stroke-width:2;stroke-linecap:round;stroke-linejoin:round;stroke-miterlimit:10;}
</style>
<path class="st0" d="M27,7L27,7c-2.6-2.7-6.9-2.7-9.5,0l-1.3,1.4c-0.1,0.1-0.4,0.1-0.5,0L14.4,7C11.8,4.3,7.6,4.3,5,7l0,0
	c-2.6,2.7-2.6,7.1,0,9.8l1.6,1.6l9.2,9.5c0.1,0.1,0.4,0.1,0.5,0l9.2-9.5l1.6-1.6C29.7,14.1,29.7,9.7,27,7z"/>
<polyline class="st0" points="9,15 12,15 14,13 16,17 18,12 20,15 23,15 "/>
</svg>
