<?xml version="1.0" encoding="utf-8"?>
<!-- Generator: Adobe Illustrator 23.0.3, SVG Export Plug-In . SVG Version: 6.00 Build 0)  -->
<svg version="1.1" id="Icons" xmlns="http://www.w3.org/2000/svg" xmlns:xlink="http://www.w3.org/1999/xlink" x="0px" y="0px"
	 viewBox="0 0 32 32" style="enable-background:new 0 0 32 32;" xml:space="preserve">
<style type="text/css">
	.st0{fill:none;stroke:#000000;stroke-width:2;stroke-linecap:round;stroke-linejoin:round;stroke-miterlimit:10;}
</style>
<circle class="st0" cx="20.5" cy="11.5" r="3.5"/>
<path class="st0" d="M17.4,13.2L15,15.7c-0.8,0.8-2,0.8-2.8,0l-2.8-2.8c-0.8-0.8-0.8-2,0-2.8l7.1-7.1l5.3,5.3"/>
<path class="st0" d="M23.8,10.2c3.1,1.7,5.2,5,5.2,8.8c0,5.5-4.5,10-10,10H3v-2c0-1.1,0.9-2,2-2h10l4,4"/>
<path class="st0" d="M22.8,14.1c1.5,1.1,2.4,2.9,2.4,4.9c0,3.4-2.8,6-6.2,6h-4"/>
<path class="st0" d="M12.2,15.7L10,17.8c-0.4,0.4-1,0.4-1.4,0l-1.4-1.4c-0.4-0.4-0.4-1,0-1.4l2.2-2.2"/>
<path class="st0" d="M17.2,3.7L18.9,2c0.4-0.4,1-0.4,1.4,0l2.1,2.1c0.4,0.4,0.4,1,0,1.4l-1.7,1.7"/>
</svg>
